<svg width="829" height="333" viewBox="0 0 829 333" fill="none" xmlns="http://www.w3.org/2000/svg">
<path fill-rule="evenodd" clip-rule="evenodd" d="M0 333H829V0H0V333Z" fill="#ED1C24"/>
<path fill-rule="evenodd" clip-rule="evenodd" d="M803.481 255.897V306.176H710.275V26.5921H760.465V255.897H803.481ZM405.22 163.694C401.335 165.556 397.275 166.493 393.32 166.502V76.5815C393.383 76.5815 393.466 76.5766 393.571 76.5766C397.527 76.5484 427.083 77.7511 427.083 121.05C427.083 143.682 417.022 157.962 405.22 163.694ZM258.122 218.887L272.021 99.3396L286.441 218.887H258.122ZM701.523 77.6185V26.6338H559.407L536.011 196.929L512.901 26.6338H461.646L467.384 72.0947C461.468 60.4481 440.495 26.6338 394.31 26.6338C394.002 26.6142 342.992 26.6338 342.992 26.6338L342.797 274.846L305.442 26.6338L238.32 26.6056L199.67 283.774L199.677 26.6338H135.444L112.287 171.095L89.7261 26.6338H25.4593V306.221H76.0724V171.46L99.0991 306.221H125.996L148.695 171.46V306.221H246.258L252.162 263.222H291.44L297.337 306.221L393.196 306.277V306.221H393.32V215.475L405.059 213.764L429.36 306.277H478.908L478.893 306.221H479.033L447.135 197.805C463.29 185.854 481.548 155.556 476.693 126.566V126.553C476.748 126.921 506.794 306.399 506.794 306.399L565.72 306.221L605.994 52.811V306.221H701.523V255.937H656.174V191.829H701.523V140.776H656.174V77.6185H701.523Z" fill="white"/>
</svg>
